<svg width="41" height="41" viewBox="0 0 41 41" fill="none" xmlns="http://www.w3.org/2000/svg">
<circle cx="20.5" cy="20.5" r="20.5" fill="#F3F3F3"/>
<path d="M19.1603 30.9999C19.1603 31.8284 19.8319 32.4999 20.6603 32.4999C21.4888 32.4999 22.1603 31.8284 22.1603 30.9999H19.1603ZM21.721 9.93928C21.1352 9.35349 20.1855 9.35349 19.5997 9.93928L10.0537 19.4852C9.46795 20.071 9.46795 21.0208 10.0537 21.6065C10.6395 22.1923 11.5893 22.1923 12.1751 21.6065L20.6603 13.1213L29.1456 21.6065C29.7314 22.1923 30.6812 22.1923 31.2669 21.6065C31.8527 21.0208 31.8527 20.071 31.2669 19.4852L21.721 9.93928ZM22.1603 30.9999V10.9999H19.1603V30.9999H22.1603Z" fill="black"/>
</svg>
