<svg width="24" height="44" viewBox="0 0 24 44" fill="none" xmlns="http://www.w3.org/2000/svg">
<path d="M11.6496 42.1045C11.6178 42.1799 11.5821 42.2535 11.5426 42.3251C11.3351 42.7076 11.0421 43.037 10.6862 43.2876C10.2648 43.5839 9.77009 43.7589 9.25599 43.7935C8.74188 43.828 8.22814 43.7209 7.77081 43.4837C7.31348 43.2466 6.93013 42.8885 6.66257 42.4486C6.39501 42.0086 6.25352 41.5037 6.25354 40.9889V40.5353H6.63888C8.13602 41.5021 9.8679 42.0445 11.6496 42.1045Z" fill="#3F3D56"/>
<path d="M17.1482 40.6681V40.9889C17.1484 41.6135 16.9403 42.2204 16.5568 42.7136C16.1733 43.2069 15.6362 43.5585 15.0304 43.7127C14.4245 43.867 13.7846 43.8152 13.2115 43.5656C12.6384 43.3159 12.1649 42.8826 11.8659 42.3341C11.8247 42.2608 11.7874 42.1852 11.7543 42.1079C11.8366 42.1101 11.9177 42.1112 12 42.1112C13.8164 42.1133 15.598 41.6139 17.1482 40.6681Z" fill="#3F3D56"/>
<path d="M20.9385 6.74164C20.854 6.72926 20.7684 6.72138 20.6827 6.71576C21.6559 8.95622 21.7233 11.486 20.871 13.775C20.9566 13.7649 21.0411 13.7514 21.1256 13.7356C21.9508 13.5759 22.6924 13.1288 23.2186 12.4739C23.7447 11.8191 24.0212 10.9989 23.9987 10.1594C23.9763 9.32 23.6564 8.51576 23.096 7.88989C22.5356 7.26401 21.7711 6.85712 20.9385 6.74164Z" fill="#3F3D56"/>
<path d="M3.31718 6.71576C3.23152 6.72139 3.14592 6.72927 3.06141 6.74164C2.22887 6.85713 1.46436 7.26403 0.903985 7.8899C0.343607 8.51578 0.0237186 9.32002 0.00126741 10.1595C-0.0211838 10.9989 0.255262 11.819 0.781386 12.4739C1.30751 13.1288 2.04917 13.5759 2.87435 13.7356C2.95885 13.7514 3.04336 13.7649 3.12897 13.775C2.27668 11.486 2.34413 8.95623 3.31718 6.71576Z" fill="#3F3D56"/>
<path d="M20.9386 6.74165C20.0103 4.52647 18.291 2.73509 16.1147 1.71552C13.9383 0.695961 11.4604 0.521015 9.16213 1.22467C6.8639 1.92833 4.90953 3.46036 3.6787 5.52311C2.44786 7.58587 2.02844 10.0321 2.50193 12.3865C2.97541 14.7409 4.30799 16.8354 6.24078 18.2632C8.17356 19.6909 10.5686 20.3499 12.9605 20.1121C15.3524 19.8743 17.5704 18.7568 19.1837 16.9765C20.797 15.1963 21.6903 12.8805 21.6901 10.479C21.6897 9.19579 21.4342 7.92545 20.9386 6.74165ZM20.871 13.775C20.0468 15.9885 18.4231 17.8136 16.3196 18.8911C14.216 19.9686 11.785 20.2204 9.50489 19.5971C7.22482 18.9737 5.26088 17.5203 3.9996 15.5228C2.73833 13.5254 2.27107 11.1287 2.68981 8.80433C3.10856 6.47999 4.38297 4.39642 6.26221 2.96371C8.14145 1.531 10.4894 0.852922 12.8439 1.06294C15.1985 1.27296 17.3891 2.35585 18.9845 4.0985C20.58 5.84114 21.4648 8.1173 21.4648 10.479C21.4644 11.6042 21.2634 12.7203 20.871 13.775Z" fill="#3F3D56"/>
<path d="M16.9578 8.28387H7.04226C6.5193 8.28387 6.01776 8.49143 5.64797 8.86087C5.27818 9.23031 5.07043 9.73138 5.07043 10.2539C5.07043 10.7763 5.27818 11.2774 5.64797 11.6468C6.01776 12.0163 6.5193 12.2238 7.04226 12.2238H16.9578C17.4807 12.2238 17.9823 12.0163 18.3521 11.6468C18.7218 11.2774 18.9296 10.7763 18.9296 10.2539C18.9296 9.73138 18.7218 9.23031 18.3521 8.86087C17.9823 8.49143 17.4807 8.28387 16.9578 8.28387Z" fill="#3F3D56"/>
<path d="M20.871 27.3015C20.8349 27.2351 20.7977 27.1698 20.7594 27.1056C20.7583 27.1034 20.7571 27.1023 20.756 27.1C19.8694 25.5838 18.6035 24.3239 17.0824 23.4441C15.5613 22.5642 13.8374 22.0946 12.0798 22.0814C10.3222 22.0682 8.59133 22.5117 7.05713 23.3686C5.52293 24.2254 4.23809 25.4661 3.32873 26.9688C2.41936 28.4715 1.91672 30.1846 1.87014 31.9399C1.82355 33.6953 2.23462 35.4326 3.063 36.9814C3.89138 38.5301 5.10861 39.837 6.59521 40.7739C8.0818 41.7107 9.78668 42.2453 11.5425 42.3251C11.6495 42.3308 11.7577 42.3341 11.8659 42.3341C11.911 42.3364 11.9549 42.3364 12 42.3364C13.8114 42.339 15.59 41.8533 17.1481 40.9304C18.8406 39.9297 20.2077 38.4619 21.085 36.7034C21.0861 36.7011 21.0873 36.7 21.0884 36.6977C21.1222 36.6302 21.1549 36.5615 21.1876 36.4917C21.8653 35.0438 22.1899 33.4561 22.1348 31.8586C22.0798 30.2612 21.6467 28.6995 20.871 27.3015ZM20.9679 36.4298C20.9352 36.4996 20.9014 36.5683 20.8665 36.6358C20.0283 38.3005 18.7402 39.6974 17.1481 40.6681C15.598 41.6139 13.8164 42.1134 12 42.1113C11.9177 42.1113 11.8366 42.1101 11.7543 42.1079C11.7194 42.1079 11.6845 42.1068 11.6495 42.1045C9.92913 42.0444 8.25404 41.5379 6.78907 40.6348C5.32409 39.7317 4.11972 38.463 3.29443 36.9538C2.46914 35.4445 2.05138 33.7465 2.08227 32.027C2.11315 30.3074 2.59161 28.6256 3.47057 27.1468C4.34953 25.6681 5.59869 24.4435 7.09515 23.5934C8.59162 22.7434 10.2838 22.2972 12.0053 22.2989C13.7267 22.3005 15.418 22.7499 16.9129 23.6028C18.4077 24.4556 19.6546 25.6826 20.5307 27.163C20.5318 27.1653 20.5329 27.1664 20.534 27.1687C20.5735 27.2328 20.6118 27.2981 20.6479 27.3634C21.4211 28.7396 21.8537 30.2806 21.9093 31.8578C21.965 33.435 21.6422 35.0027 20.9679 36.4298Z" fill="#3F3D56"/>
<path d="M19.7938 27.6009C19.5963 27.4604 19.3601 27.3845 19.1177 27.3837H14.6862C14.3775 27.3837 14.0814 27.5062 13.8631 27.7243C13.6448 27.9423 13.5222 28.2381 13.5222 28.5465C13.5222 28.8549 13.6448 29.1507 13.8631 29.3688C14.0814 29.5869 14.3775 29.7094 14.6862 29.7094H19.1177C19.1968 29.7096 19.2757 29.7017 19.3532 29.6857C19.4303 29.6691 19.5058 29.6454 19.5785 29.6148C19.768 29.5333 19.9323 29.4029 20.0547 29.237C20.1771 29.0711 20.2532 28.8756 20.2751 28.6707C20.297 28.4658 20.264 28.2587 20.1794 28.0707C20.0948 27.8827 19.9617 27.7206 19.7938 27.6009Z" fill="#3F3D56"/>
<path d="M14.9812 29.1368C15.3076 29.1368 15.5722 28.8725 15.5722 28.5464C15.5722 28.2204 15.3076 27.9561 14.9812 27.9561C14.6549 27.9561 14.3903 28.2204 14.3903 28.5464C14.3903 28.8725 14.6549 29.1368 14.9812 29.1368Z" fill="#F1F1F1"/>
<path d="M16.9017 29.1368C17.2281 29.1368 17.4926 28.8725 17.4926 28.5464C17.4926 28.2204 17.2281 27.9561 16.9017 27.9561C16.5754 27.9561 16.3108 28.2204 16.3108 28.5464C16.3108 28.8725 16.5754 29.1368 16.9017 29.1368Z" fill="#F1F1F1"/>
<path d="M18.8222 29.1368C19.1486 29.1368 19.4132 28.8725 19.4132 28.5464C19.4132 28.2204 19.1486 27.9561 18.8222 27.9561C18.4959 27.9561 18.2313 28.2204 18.2313 28.5464C18.2313 28.8725 18.4959 29.1368 18.8222 29.1368Z" fill="#66ACFF"/>
</svg>
