<svg width="24" height="44" viewBox="0 0 24 44" fill="none" xmlns="http://www.w3.org/2000/svg">
<path d="M11.6496 41.9043C11.6178 41.9797 11.5821 42.0533 11.5426 42.1249C11.3351 42.5074 11.0421 42.8368 10.6862 43.0874C10.2648 43.3837 9.77009 43.5587 9.25599 43.5933C8.74188 43.6279 8.22814 43.5207 7.77081 43.2836C7.31348 43.0464 6.93013 42.6883 6.66257 42.2484C6.39501 41.8084 6.25352 41.3035 6.25354 40.7887V40.3351H6.63888C8.13602 41.3019 9.8679 41.8443 11.6496 41.9043Z" fill="#3F3D56"/>
<path d="M17.1482 40.4679V40.7887C17.1484 41.4133 16.9403 42.0202 16.5568 42.5134C16.1733 43.0067 15.6362 43.3583 15.0304 43.5125C14.4245 43.6668 13.7846 43.615 13.2115 43.3654C12.6384 43.1157 12.1649 42.6824 11.8659 42.1339C11.8247 42.0606 11.7874 41.985 11.7543 41.9077C11.8366 41.9099 11.9177 41.9111 12 41.9111C13.8164 41.9132 15.598 41.4137 17.1482 40.4679Z" fill="#3F3D56"/>
<path d="M20.9385 6.54145C20.854 6.52907 20.7684 6.52119 20.6827 6.51556C21.6559 8.75602 21.7233 11.2858 20.871 13.5748C20.9566 13.5647 21.0411 13.5512 21.1256 13.5354C21.9508 13.3757 22.6924 12.9286 23.2186 12.2737C23.7447 11.6189 24.0212 10.7987 23.9987 9.95925C23.9763 9.11981 23.6564 8.31557 23.096 7.68969C22.5356 7.06381 21.7711 6.65692 20.9385 6.54145Z" fill="#3F3D56"/>
<path d="M3.31718 6.51556C3.23152 6.52119 3.14592 6.52907 3.06141 6.54145C2.22887 6.65693 1.46436 7.06383 0.903985 7.68971C0.343607 8.31558 0.0237186 9.11982 0.00126741 9.95926C-0.0211838 10.7987 0.255262 11.6188 0.781386 12.2737C1.30751 12.9286 2.04917 13.3757 2.87435 13.5354C2.95885 13.5512 3.04336 13.5647 3.12897 13.5748C2.27668 11.2858 2.34413 8.75604 3.31718 6.51556Z" fill="#3F3D56"/>
<path d="M20.9386 6.54146C20.0103 4.32627 18.291 2.53489 16.1147 1.51533C13.9383 0.495766 11.4604 0.320819 9.16213 1.02448C6.8639 1.72814 4.90953 3.26016 3.6787 5.32292C2.44786 7.38567 2.02844 9.83187 2.50193 12.1863C2.97541 14.5407 4.30799 16.6352 6.24078 18.063C8.17356 19.4907 10.5686 20.1497 12.9605 19.9119C15.3524 19.6741 17.5704 18.5566 19.1837 16.7763C20.797 14.9961 21.6903 12.6803 21.6901 10.2788C21.6897 8.9956 21.4342 7.72526 20.9386 6.54146ZM20.871 13.5748C20.0468 15.7883 18.4231 17.6134 16.3196 18.6909C14.216 19.7684 11.785 20.0203 9.50489 19.3969C7.22482 18.7735 5.26088 17.3201 3.9996 15.3226C2.73833 13.3252 2.27107 10.9285 2.68981 8.60413C3.10856 6.27979 4.38297 4.19622 6.26221 2.76351C8.14145 1.3308 10.4894 0.652727 12.8439 0.862744C15.1985 1.07276 17.3891 2.15566 18.9845 3.8983C20.58 5.64094 21.4648 7.91711 21.4648 10.2788C21.4644 11.404 21.2634 12.5201 20.871 13.5748Z" fill="#3F3D56"/>
<path d="M16.9578 8.08368H7.04226C6.5193 8.08368 6.01776 8.29123 5.64797 8.66067C5.27818 9.03012 5.07043 9.53119 5.07043 10.0537C5.07043 10.5761 5.27818 11.0772 5.64797 11.4466C6.01776 11.8161 6.5193 12.0236 7.04226 12.0236H16.9578C17.4807 12.0236 17.9823 11.8161 18.3521 11.4466C18.7218 11.0772 18.9296 10.5761 18.9296 10.0537C18.9296 9.53119 18.7218 9.03012 18.3521 8.66067C17.9823 8.29123 17.4807 8.08368 16.9578 8.08368Z" fill="#3F3D56"/>
<path d="M20.871 27.1013C20.8349 27.0349 20.7977 26.9696 20.7594 26.9054C20.7583 26.9032 20.7571 26.9021 20.756 26.8998C19.8694 25.3836 18.6035 24.1237 17.0824 23.2439C15.5613 22.364 13.8374 21.8944 12.0798 21.8812C10.3222 21.868 8.59133 22.3115 7.05713 23.1684C5.52293 24.0252 4.23809 25.2659 3.32873 26.7686C2.41936 28.2713 1.91672 29.9844 1.87014 31.7397C1.82355 33.4951 2.23462 35.2324 3.063 36.7812C3.89138 38.3299 5.10861 39.6368 6.59521 40.5737C8.0818 41.5105 9.78668 42.0451 11.5425 42.125C11.6495 42.1306 11.7577 42.1339 11.8659 42.1339C11.911 42.1362 11.9549 42.1362 12 42.1362C13.8114 42.1388 15.59 41.6531 17.1481 40.7302C18.8406 39.7295 20.2077 38.2617 21.085 36.5032C21.0861 36.5009 21.0873 36.4998 21.0884 36.4975C21.1222 36.43 21.1549 36.3613 21.1876 36.2915C21.8653 34.8436 22.1899 33.2559 22.1348 31.6584C22.0798 30.061 21.6467 28.4993 20.871 27.1013ZM20.9679 36.2296C20.9352 36.2994 20.9014 36.3681 20.8665 36.4356C20.0283 38.1003 18.7402 39.4972 17.1481 40.4679C15.598 41.4137 13.8164 41.9132 12 41.9111C11.9177 41.9111 11.8366 41.9099 11.7543 41.9077C11.7194 41.9077 11.6845 41.9066 11.6495 41.9043C9.92913 41.8442 8.25404 41.3377 6.78907 40.4346C5.32409 39.5315 4.11972 38.2629 3.29443 36.7536C2.46914 35.2443 2.05138 33.5463 2.08227 31.8268C2.11315 30.1073 2.59161 28.4254 3.47057 26.9466C4.34953 25.4679 5.59869 24.2433 7.09515 23.3932C8.59162 22.5432 10.2838 22.097 12.0053 22.0987C13.7267 22.1003 15.418 22.5497 16.9129 23.4026C18.4077 24.2554 19.6546 25.4824 20.5307 26.9628C20.5318 26.9651 20.5329 26.9662 20.534 26.9685C20.5735 27.0326 20.6118 27.0979 20.6479 27.1632C21.4211 28.5394 21.8537 30.0804 21.9093 31.6576C21.965 33.2348 21.6422 34.8025 20.9679 36.2296Z" fill="#3F3D56"/>
<path d="M19.7938 27.4007C19.5963 27.2602 19.3601 27.1843 19.1177 27.1835H14.6862C14.3775 27.1835 14.0814 27.306 13.8631 27.5241C13.6448 27.7421 13.5222 28.0379 13.5222 28.3463C13.5222 28.6547 13.6448 28.9505 13.8631 29.1686C14.0814 29.3867 14.3775 29.5092 14.6862 29.5092H19.1177C19.1968 29.5094 19.2757 29.5015 19.3532 29.4855C19.4303 29.4689 19.5058 29.4452 19.5785 29.4146C19.768 29.3331 19.9323 29.2027 20.0547 29.0368C20.1771 28.8709 20.2532 28.6754 20.2751 28.4705C20.297 28.2656 20.264 28.0585 20.1794 27.8705C20.0948 27.6825 19.9617 27.5204 19.7938 27.4007Z" fill="#3F3D56"/>
<path d="M14.9812 28.9366C15.3076 28.9366 15.5722 28.6723 15.5722 28.3462C15.5722 28.0202 15.3076 27.7559 14.9812 27.7559C14.6549 27.7559 14.3903 28.0202 14.3903 28.3462C14.3903 28.6723 14.6549 28.9366 14.9812 28.9366Z" fill="#F1F1F1"/>
<path d="M16.9017 28.9366C17.2281 28.9366 17.4926 28.6723 17.4926 28.3462C17.4926 28.0202 17.2281 27.7559 16.9017 27.7559C16.5754 27.7559 16.3108 28.0202 16.3108 28.3462C16.3108 28.6723 16.5754 28.9366 16.9017 28.9366Z" fill="#F1F1F1"/>
<path d="M18.8222 28.9366C19.1486 28.9366 19.4132 28.6723 19.4132 28.3462C19.4132 28.0202 19.1486 27.7559 18.8222 27.7559C18.4959 27.7559 18.2313 28.0202 18.2313 28.3462C18.2313 28.6723 18.4959 28.9366 18.8222 28.9366Z" fill="#66ACFF"/>
</svg>
