<svg width="36" height="37" viewBox="0 0 36 37" fill="none" xmlns="http://www.w3.org/2000/svg">
<path d="M34.1986 12.3422C34.057 10.4869 32.641 8.10843 31.2249 6.96674C29.6324 5.79835 27.9779 4.71848 26.2686 3.73197C24.5722 2.71867 22.8232 1.79766 21.0291 0.972901C20.0707 0.578907 19.043 0.384719 18.0081 0.402059C16.9728 0.380137 15.9442 0.574498 14.9871 0.972901C13.1933 1.79825 11.4443 2.71924 9.74762 3.73197C7.00986 5.39693 4.79133 6.96674 4.79133 6.96674C3.64364 7.93473 2.77015 9.17654 2.24166 10.5662C2.12288 10.8785 2.36286 11.2003 2.69701 11.2003H4.72863C5.10017 11.2003 5.43624 10.9911 5.63593 10.6778C6.02932 10.0606 6.51728 9.50208 7.08711 9.02477C7.08711 9.02477 8.9189 7.73753 11.1794 6.37226C12.5803 5.54182 14.0244 4.78661 15.5056 4.10982C16.2958 3.78313 17.1451 3.62376 17.9999 3.64173C18.8544 3.62751 19.703 3.78675 20.4943 4.10982C21.9757 4.78613 23.4198 5.54136 24.8204 6.37226C26.2318 7.1812 27.5979 8.06669 28.9127 9.02477C30.082 9.96096 31.2512 11.9113 31.3681 13.4326C31.3681 13.4326 31.6409 15.6951 31.6799 18.3749C31.6775 20.0299 31.5865 21.6836 31.4071 23.3288C31.1351 25.0515 30.2491 26.6174 28.9127 27.7367C28.9127 27.7367 27.0809 29.063 24.8204 30.4282C23.4195 31.2587 21.9754 32.0139 20.4943 32.6907C19.704 33.0173 18.8547 33.1767 17.9999 33.1587C17.1462 33.1767 16.2977 33.0214 15.5056 32.7024C14.0242 32.0261 12.5801 31.2708 11.1794 30.4399C8.9189 29.1137 7.08711 27.7484 7.08711 27.7484C6.58863 27.3493 6.09015 26.7658 5.6702 26.1099C5.47318 25.8021 5.14077 25.6002 4.77536 25.6002H2.70921C2.37078 25.6002 2.13131 25.9292 2.26043 26.2421C2.83398 27.6316 3.81266 29.0114 4.79133 29.8004C4.79133 29.8004 7.00986 31.4654 9.74762 33.0828C11.444 34.0961 13.193 35.0171 14.9871 35.8418C15.9465 36.2309 16.9742 36.4203 18.0081 36.3984C19.0434 36.4203 20.072 36.226 21.0291 35.8276C22.8229 35.0022 24.5719 34.0812 26.2686 33.0685C29.0063 31.4035 31.2249 29.7862 31.2249 29.7862C32.8433 28.4211 33.9165 26.5116 34.2458 24.4107C34.4631 22.4043 34.5734 20.3876 34.5763 18.3693C34.5291 15.1012 34.1986 12.3422 34.1986 12.3422Z" fill="url(#paint0_linear_60_54)"/>
<path d="M1.44006 14.4422C1.44006 14.0445 1.76242 13.7222 2.16006 13.7222H13.3201C13.7177 13.7222 14.0401 14.0445 14.0401 14.4422V16.6021C14.0401 16.9998 13.7177 17.3221 13.3201 17.3221H1.44006V14.4422Z" fill="#0066B3"/>
<path d="M1.43988 19.4818H24.1199C24.5175 19.4818 24.8399 19.8042 24.8399 20.2018V22.3618C24.8399 22.7594 24.5175 23.0818 24.1199 23.0818H2.15988C1.76224 23.0818 1.43988 22.7594 1.43988 22.3618V19.4818Z" fill="#EE2F53"/>
<defs>
<linearGradient id="paint0_linear_60_54" x1="18.3008" y1="0.400391" x2="18.3008" y2="36.4001" gradientUnits="userSpaceOnUse">
<stop stop-color="#0066B3"/>
<stop offset="0.354167" stop-color="#0066B3"/>
<stop offset="0.6875" stop-color="#EE2F53"/>
<stop offset="1" stop-color="#EE2F53"/>
</linearGradient>
</defs>
</svg>
