<svg width="600" height="274" viewBox="0 0 600 274" fill="none" xmlns="http://www.w3.org/2000/svg">
<g clip-path="url(#clip0_41_97)">
<path d="M551.615 154.986C566.471 154.986 578.514 142.962 578.514 128.13C578.514 113.298 566.471 101.274 551.615 101.274C536.759 101.274 524.716 113.298 524.716 128.13C524.716 142.962 536.759 154.986 551.615 154.986Z" fill="#F2F2F2"/>
<path d="M551.615 135.197C555.524 135.197 558.694 132.033 558.694 128.13C558.694 124.227 555.524 121.063 551.615 121.063C547.706 121.063 544.536 124.227 544.536 128.13C544.536 132.033 547.706 135.197 551.615 135.197Z" fill="#E6E6E6"/>
<path d="M550.322 128.281C553.303 130.71 554.212 134.537 553.657 138.233C552.976 142.287 550.869 145.966 547.715 148.609C544.17 151.755 539.845 153.881 535.672 156.059C531.837 158.012 528.152 160.246 524.646 162.741C511.225 172.48 501.085 186.347 495.282 201.823C489.488 217.272 487.934 234.807 492.336 250.818C494.514 258.74 498.921 267.287 507.129 270.268C513.672 272.644 522.606 271.113 525.938 264.38C529.517 257.148 524.523 249.018 518.091 245.428C509.754 240.773 499.795 244.174 492.296 248.885C484.04 254.072 477.404 261.515 468.784 266.164C464.904 268.322 460.587 269.58 456.153 269.842C452.082 270.002 448.017 269.376 444.184 267.996C436.23 265.103 429.383 259.797 424.603 252.822C419.128 244.876 416.678 235.136 416.231 225.595C415.231 204.248 423.677 184.277 430.454 164.479C434.097 154.17 436.825 143.562 438.608 132.776C440.304 121.935 440.908 110.953 440.41 99.992C439.962 90.3002 439.004 80.1655 434.72 71.3138C430.952 63.5304 424.067 57.1601 415.362 55.554C411.438 54.7852 407.372 55.2515 403.725 56.8886C402.483 57.4541 403.561 59.282 404.797 58.7193C412.5 55.2107 421.606 58.6245 427.296 64.2896C433.94 70.905 436.38 80.6742 437.463 89.6884C439.898 111.051 437.979 132.685 431.823 153.289C425.915 173.326 416.621 192.527 414.476 213.52C413.498 223.1 414.001 233.003 417.067 242.188C419.698 250.371 424.632 257.624 431.28 263.083C437.539 268.135 445.239 271.577 453.345 271.961C462.444 272.391 470.423 268.341 477.483 262.953C485.044 257.183 492 250.064 501.159 246.828C505.334 245.353 510.09 244.665 514.377 246.085C518.055 247.339 521.174 249.844 523.191 253.161C525.053 256.252 525.74 260.117 524.041 263.437C522.444 266.559 519.325 268.365 515.95 268.983C512.375 269.614 508.692 268.99 505.527 267.215C501.829 265.107 499.123 261.568 497.228 257.829C493.447 250.373 492.177 241.498 491.984 233.223C491.816 225.14 492.853 217.076 495.063 209.298C499.459 193.564 508.333 179.44 520.609 168.641C523.701 165.951 527.01 163.519 530.501 161.369C534.309 159.026 538.374 157.153 542.256 154.942C546.077 152.766 549.841 150.167 552.472 146.586C554.715 143.518 555.926 139.819 555.932 136.02C555.972 134.273 555.624 132.539 554.914 130.942C554.203 129.344 553.148 127.924 551.823 126.782C550.773 125.926 549.262 127.418 550.322 128.281Z" fill="#CCCCCC"/>
<path d="M299.205 251.807C308.61 257.877 319.49 261.282 330.683 261.659C330.484 262.132 330.259 262.594 330.011 263.044C328.708 265.445 326.867 267.513 324.631 269.087C321.984 270.947 318.876 272.045 315.646 272.262C312.416 272.479 309.189 271.807 306.316 270.318C303.443 268.829 301.034 266.581 299.353 263.819C297.673 261.057 296.784 257.887 296.784 254.655V251.807H299.205Z" fill="#3F3D56"/>
<path d="M365.227 252.641V254.655C365.229 258.577 363.921 262.387 361.512 265.483C359.103 268.58 355.729 270.787 351.923 271.756C348.117 272.724 344.096 272.399 340.496 270.832C336.896 269.264 333.921 266.544 332.043 263.101C331.784 262.64 331.55 262.166 331.342 261.68C331.858 261.694 332.368 261.701 332.885 261.701C344.296 261.715 355.489 258.579 365.227 252.641Z" fill="#3F3D56"/>
<path d="M389.04 39.6478C388.509 39.57 387.971 39.5206 387.433 39.4852C393.546 53.5511 393.97 69.4333 388.615 83.8041C389.153 83.7404 389.684 83.6556 390.215 83.5567C395.399 82.5538 400.058 79.7469 403.364 75.6355C406.669 71.5241 408.406 66.3751 408.264 61.1051C408.123 55.835 406.114 50.7859 402.593 46.8566C399.073 42.9273 394.27 40.3728 389.04 39.6478Z" fill="#3F3D56"/>
<path d="M278.337 39.4854C277.799 39.5207 277.261 39.5701 276.73 39.6479C271.5 40.3729 266.697 42.9274 263.176 46.8567C259.656 50.786 257.646 55.8351 257.505 61.1052C257.364 66.3752 259.101 71.5242 262.406 75.6356C265.711 79.747 270.371 82.554 275.555 83.5568C276.086 83.6558 276.617 83.7406 277.155 83.8042C271.8 69.4334 272.224 53.5513 278.337 39.4854Z" fill="#3F3D56"/>
<path d="M389.04 39.6478C383.208 25.7393 372.407 14.4916 358.733 8.08982C345.06 1.68801 329.491 0.589216 315.052 5.0069C300.612 9.42459 288.333 19.0433 280.6 31.9944C272.866 44.9455 270.231 60.3043 273.206 75.0868C276.18 89.8694 284.552 103.02 296.696 111.984C308.839 120.949 323.886 125.086 338.914 123.594C353.942 122.101 367.878 115.084 378.014 103.907C388.15 92.7291 393.762 78.189 393.761 63.1111C393.758 55.0551 392.154 47.0798 389.04 39.6478ZM388.615 83.8041C383.437 97.7011 373.236 109.16 360.021 115.925C346.805 122.69 331.532 124.271 317.207 120.357C302.883 116.443 290.544 107.318 282.62 94.7778C274.696 82.2373 271.76 67.1897 274.391 52.5967C277.022 38.0038 285.028 24.9225 296.835 15.9274C308.641 6.93242 323.392 2.67526 338.185 3.99385C352.977 5.31245 366.74 12.1113 376.763 23.0522C386.787 33.9931 392.346 48.2837 392.345 63.1111C392.343 70.1753 391.08 77.1825 388.615 83.8041Z" fill="#3F3D56"/>
<path d="M364.031 49.33H301.739C298.453 49.33 295.303 50.633 292.979 52.9524C290.656 55.2718 289.351 58.4175 289.351 61.6977C289.351 64.9778 290.656 68.1236 292.979 70.443C295.303 72.7624 298.453 74.0654 301.739 74.0654H364.031C367.316 74.0654 370.467 72.7624 372.79 70.443C375.113 68.1236 376.419 64.9778 376.419 61.6977C376.419 58.4175 375.113 55.2718 372.79 52.9524C370.467 50.633 367.316 49.33 364.031 49.33Z" fill="#3F3D56"/>
<path d="M332.885 135.904C316.243 135.912 300.265 142.421 288.368 154.039C276.471 165.657 269.6 181.461 269.225 198.072C268.849 214.683 274.999 230.781 286.359 242.923C297.719 255.065 313.386 262.287 330.011 263.044C330.683 263.079 331.363 263.101 332.043 263.101C332.326 263.115 332.602 263.115 332.885 263.115C349.781 263.115 365.986 256.414 377.933 244.485C389.881 232.557 396.593 216.379 396.593 199.509C396.593 182.64 389.881 166.462 377.933 154.534C365.986 142.605 349.781 135.904 332.885 135.904ZM365.227 252.641C355.489 258.579 344.296 261.715 332.885 261.701C332.368 261.701 331.858 261.694 331.342 261.68C331.122 261.68 330.903 261.673 330.683 261.659C315.725 261.14 301.453 255.264 290.476 245.105C279.5 234.946 272.551 221.183 270.9 206.331C269.25 191.479 273.008 176.529 281.487 164.215C289.966 151.901 302.601 143.045 317.081 139.264C331.562 135.484 346.922 137.033 360.353 143.627C373.784 150.221 384.39 161.42 390.233 175.178C396.075 188.936 396.763 204.334 392.172 218.557C387.581 232.78 378.017 244.878 365.227 252.641Z" fill="#3F3D56"/>
<path d="M377.598 183.844H349.756C347.816 183.844 345.955 183.074 344.583 181.705C343.212 180.335 342.441 178.478 342.441 176.541C342.441 174.604 343.212 172.746 344.583 171.377C345.955 170.007 347.816 169.238 349.756 169.238H377.598C379.538 169.238 381.399 170.007 382.771 171.377C384.142 172.746 384.913 174.604 384.913 176.541C384.913 178.478 384.142 180.335 382.771 181.705C381.399 183.074 379.538 183.844 377.598 183.844Z" fill="#3F3D56"/>
<path d="M351.612 180.247C353.662 180.247 355.324 178.588 355.324 176.541C355.324 174.494 353.662 172.834 351.612 172.834C349.562 172.834 347.899 174.494 347.899 176.541C347.899 178.588 349.562 180.247 351.612 180.247Z" fill="#F2F2F2"/>
<path d="M363.677 180.247C365.727 180.247 367.389 178.588 367.389 176.541C367.389 174.494 365.727 172.834 363.677 172.834C361.627 172.834 359.965 174.494 359.965 176.541C359.965 178.588 361.627 180.247 363.677 180.247Z" fill="#F2F2F2"/>
<path d="M375.742 180.247C377.792 180.247 379.455 178.588 379.455 176.541C379.455 174.494 377.792 172.834 375.742 172.834C373.692 172.834 372.03 174.494 372.03 176.541C372.03 178.588 373.692 180.247 375.742 180.247Z" fill="#66ACFF"/>
<path d="M116.532 270.456C122.898 265.086 126.765 256.603 125.751 248.344C124.737 240.085 118.456 232.493 110.31 230.74C102.163 228.986 92.8766 233.84 90.4023 241.786C89.0405 226.468 87.4713 210.508 79.3142 197.463C71.9281 185.652 59.1353 177.2 45.2708 175.688C31.4063 174.176 16.8088 179.887 8.16201 190.812C-0.484774 201.738 -2.60191 217.621 3.45407 230.164C7.9153 239.405 16.1345 246.281 24.7461 251.876C52.2202 269.725 86.3017 275.755 118.731 270.99L116.532 270.456Z" fill="#F2F2F2"/>
<path d="M21.8724 180.203C33.3123 189.506 43.8072 199.911 53.2054 211.267C62.605 222.611 70.8803 234.839 77.9152 247.778C81.8473 255.037 85.3797 262.504 88.4965 270.147C89.1319 271.702 86.6032 272.378 85.9748 270.841C80.4543 257.367 73.6243 244.465 65.5828 232.32C57.5804 220.22 48.4212 208.924 38.2339 198.589C32.4719 192.747 26.3925 187.225 20.0233 182.049C18.7177 180.988 20.5776 179.151 21.8724 180.203Z" fill="white"/>
<path d="M114.374 47.3442C126.494 47.3442 136.318 37.5354 136.318 25.4356C136.318 13.3359 126.494 3.5271 114.374 3.5271C102.255 3.5271 92.4305 13.3359 92.4305 25.4356C92.4305 37.5354 102.255 47.3442 114.374 47.3442Z" fill="#2F2E41"/>
<path d="M196.216 105.657C195.795 106.288 195.282 106.854 194.695 107.334C193.848 108.031 192.863 108.541 191.805 108.832C190.747 109.122 189.64 109.186 188.555 109.02C187.471 108.853 186.434 108.459 185.512 107.865C184.591 107.27 183.806 106.488 183.208 105.569C183.07 105.355 182.943 105.133 182.828 104.906L148.249 101.575C145.52 101.302 142.952 100.157 140.926 98.3113C138.9 96.4653 137.524 94.0163 137.003 91.3278L135.04 80.9975L148.535 78.9015L150.957 87.1762L184.671 95.4443C184.932 95.2155 185.209 95.0053 185.5 94.8152C187.003 93.8408 188.798 93.4143 190.58 93.6076C192.363 93.8009 194.024 94.6021 195.283 95.8762C196.542 97.1503 197.323 98.8191 197.493 100.601C197.663 102.383 197.211 104.169 196.216 105.657Z" fill="#FFB8B8"/>
<path d="M151.786 85.9272L136.711 89.9928C135.896 90.2118 135.026 90.0988 134.294 89.6787C133.562 89.2587 133.026 88.5657 132.805 87.752L127.525 68.238C126.96 66.1477 127.189 63.9224 128.17 61.9911C129.15 60.0598 130.812 58.5593 132.835 57.779C134.858 56.9987 137.099 56.9938 139.125 57.7652C141.151 58.5366 142.82 60.0298 143.809 61.9567L153.79 81.4067C154.007 81.8284 154.126 82.2931 154.139 82.7667C154.153 83.2404 154.06 83.711 153.868 84.1443C153.676 84.5776 153.389 84.9625 153.029 85.271C152.669 85.5795 152.244 85.8036 151.786 85.9272Z" fill="#2F2E41"/>
<path d="M143.054 265.11H151.731L155.86 231.69L143.052 231.691L143.054 265.11Z" fill="#FFB8B8"/>
<path d="M168.469 273.154L141.194 273.156L141.194 262.635L157.93 262.634C160.725 262.634 163.406 263.742 165.382 265.715C167.358 267.688 168.469 270.364 168.469 273.154Z" fill="#2F2E41"/>
<path d="M65.7054 256.666L73.8246 259.726L89.5123 229.918L77.5296 225.401L65.7054 256.666Z" fill="#FFB8B8"/>
<path d="M86.6356 273.156L61.1193 263.537L64.8417 253.694L80.4994 259.597C83.1141 260.582 85.2294 262.564 86.3802 265.107C87.531 267.65 87.6228 270.545 86.6356 273.156Z" fill="#2F2E41"/>
<path d="M142.78 257.348C142.107 257.347 141.452 257.134 140.908 256.738C140.364 256.343 139.96 255.786 139.753 255.147L117.619 186.902C117.554 186.7 117.428 186.522 117.26 186.391C117.092 186.261 116.889 186.184 116.676 186.17C116.463 186.157 116.252 186.208 116.068 186.316C115.885 186.424 115.738 186.585 115.648 186.777L84.9728 251.938C84.6406 252.643 84.0612 253.201 83.3444 253.508C82.6276 253.814 81.823 253.848 81.0829 253.603L69.0018 249.582C68.2345 249.325 67.5936 248.786 67.2088 248.076C66.8241 247.365 66.7242 246.534 66.9294 245.753L85.7193 174.694C87.6854 167.167 89.1056 159.508 89.9689 151.777C91.2866 139.046 97.2647 127.249 106.757 118.648C110.902 114.856 113.596 109.743 114.378 104.186L114.429 103.83L141.946 108.168L159.376 250.17C159.466 250.93 159.28 251.696 158.852 252.331C158.424 252.965 157.782 253.425 157.042 253.627L143.611 257.237C143.34 257.31 143.061 257.348 142.78 257.348Z" fill="#2F2E41"/>
<path d="M123.092 47.2398C132.694 47.2398 140.477 39.4684 140.477 29.8819C140.477 20.2953 132.694 12.5239 123.092 12.5239C113.49 12.5239 105.706 20.2953 105.706 29.8819C105.706 39.4684 113.49 47.2398 123.092 47.2398Z" fill="#FFB8B8"/>
<path d="M140.236 111.196C140.181 111.196 140.127 111.195 140.072 111.192L112.794 109.83C112.032 109.796 111.309 109.489 110.756 108.965C110.203 108.441 109.858 107.736 109.784 106.978L106.058 70.7034C105.785 68.047 106.167 65.3642 107.17 62.8889C108.174 60.4136 109.768 58.2208 111.815 56.5017C113.862 54.7826 116.299 53.5893 118.913 53.0258C121.528 52.4622 124.24 52.5456 126.815 53.2685C128.948 53.8519 130.936 54.8728 132.652 56.2663C151.841 71.9996 145.654 100.506 143.3 108.868C143.116 109.538 142.716 110.129 142.162 110.549C141.609 110.97 140.932 111.197 140.236 111.196Z" fill="#66ACFF"/>
<path d="M116.505 135.554C115.745 135.554 114.99 135.441 114.264 135.218C113.214 134.901 112.243 134.365 111.415 133.646C110.586 132.928 109.919 132.043 109.458 131.049C108.996 130.055 108.75 128.975 108.735 127.88C108.721 126.784 108.938 125.698 109.373 124.693C109.475 124.459 109.589 124.231 109.715 124.009L93.3386 93.4214C92.0548 91.0015 91.5868 88.2329 92.004 85.5263C92.4212 82.8198 93.7014 80.3198 95.6546 78.3973L103.182 71.0436L112.405 81.0999L106.846 87.6965L118.626 120.301C118.962 120.391 119.291 120.505 119.61 120.641C121.256 121.351 122.605 122.606 123.431 124.195C124.258 125.784 124.509 127.608 124.145 129.361C123.78 131.113 122.82 132.686 121.429 133.815C120.037 134.943 118.298 135.557 116.505 135.554Z" fill="#FFB8B8"/>
<path d="M108.347 87.6938L96.6062 77.4154C95.9718 76.8588 95.5845 76.0736 95.5292 75.2323C95.4739 74.3909 95.7552 73.562 96.3113 72.9274L109.659 57.7293C111.089 56.1013 113.072 55.0595 115.226 54.8047C117.379 54.5499 119.551 55.1002 121.322 56.3495C123.094 57.5987 124.339 59.4585 124.818 61.5702C125.297 63.6818 124.976 65.8959 123.917 67.7853L113.227 86.8558C112.995 87.2693 112.674 87.6259 112.286 87.8995C111.899 88.1731 111.455 88.3567 110.987 88.437C110.519 88.5174 110.039 88.4923 109.583 88.3637C109.126 88.2351 108.704 88.0062 108.347 87.6938Z" fill="#2F2E41"/>
<path d="M111.904 46.7429C113.49 47.3045 115.435 47.7996 116.683 46.6349C117.902 45.4979 117.68 43.4186 116.962 41.8868C116.244 40.3549 115.13 38.9918 114.789 37.3245C114.3 34.935 115.565 32.4525 117.371 30.8946C119.176 29.3367 121.449 28.5184 123.668 27.7309L135.838 23.4115C138.851 22.3424 142.097 21.0864 143.783 18.2728C146.222 14.2016 143.992 8.38211 139.991 6.0065C135.99 3.63089 130.936 4.07345 126.619 5.74387C124.231 6.66775 121.96 7.94085 119.491 8.5912C114.618 9.87473 109.077 8.72327 104.795 11.4665C101.067 13.8545 99.3379 18.727 99.4635 23.286C99.589 27.8451 101.27 32.1869 103.044 36.3564C104.099 38.8369 105.226 41.3461 107.013 43.319C108.8 45.2919 111.383 46.6721 113.962 46.3091L111.904 46.7429Z" fill="#2F2E41"/>
<path d="M95.9698 28.9693C103.789 28.9693 110.127 22.641 110.127 14.8347C110.127 7.02844 103.789 0.700195 95.9698 0.700195C88.1509 0.700195 81.8125 7.02844 81.8125 14.8347C81.8125 22.641 88.1509 28.9693 95.9698 28.9693Z" fill="#2F2E41"/>
<path d="M210.794 96.4265L210.543 96.3921L211.489 89.5208C211.634 88.466 211.353 87.3968 210.709 86.5485C210.065 85.7001 209.109 85.142 208.053 84.997L193.471 82.9958C192.415 82.8508 191.344 83.1307 190.494 83.7741C189.644 84.4174 189.085 85.3714 188.94 86.4261L183.75 124.123C183.604 125.178 183.885 126.247 184.529 127.096C185.173 127.944 186.129 128.502 187.185 128.647L201.767 130.648C202.824 130.793 203.895 130.513 204.744 129.87C205.594 129.227 206.153 128.273 206.298 127.218L209.869 101.283L210.12 101.318L210.794 96.4265Z" fill="#3F3D56"/>
<path d="M207.594 87.0129L205.779 86.7638C205.834 86.9796 205.836 87.2057 205.783 87.4222C205.73 87.6387 205.625 87.8389 205.476 88.0051C205.328 88.1714 205.14 88.2986 204.931 88.3756C204.722 88.4526 204.496 88.477 204.275 88.4467L196.307 87.3531C196.086 87.3228 195.876 87.2386 195.695 87.108C195.514 86.9775 195.369 86.8045 195.27 86.6044C195.172 86.4043 195.125 86.1832 195.133 85.9605C195.14 85.7379 195.203 85.5205 195.314 85.3276L193.619 85.0949C193.246 85.0437 192.867 85.0664 192.503 85.1615C192.139 85.2566 191.798 85.4224 191.498 85.6493C191.198 85.8762 190.946 86.1598 190.756 86.4839C190.567 86.808 190.442 87.1664 190.391 87.5384L185.448 123.443C185.344 124.194 185.544 124.956 186.003 125.56C186.462 126.165 187.143 126.562 187.895 126.665L201.871 128.584C202.623 128.687 203.386 128.487 203.991 128.029C204.597 127.571 204.995 126.891 205.098 126.14L210.042 90.2352C210.145 89.4839 209.945 88.7223 209.487 88.118C209.028 87.5137 208.347 87.1162 207.594 87.0129Z" fill="white"/>
<path d="M197.683 116.822C201.983 116.822 205.469 113.342 205.469 109.048C205.469 104.755 201.983 101.274 197.683 101.274C193.382 101.274 189.896 104.755 189.896 109.048C189.896 113.342 193.382 116.822 197.683 116.822Z" fill="#66ACFF"/>
<path d="M196.911 112.014C196.736 112.014 196.565 111.958 196.425 111.853L196.416 111.846L194.586 110.448C194.501 110.383 194.43 110.302 194.376 110.21C194.322 110.117 194.287 110.015 194.273 109.909C194.258 109.803 194.265 109.696 194.293 109.593C194.32 109.489 194.368 109.392 194.433 109.308C194.498 109.223 194.579 109.152 194.672 109.098C194.765 109.045 194.867 109.01 194.973 108.996C195.079 108.983 195.187 108.99 195.29 109.018C195.394 109.046 195.491 109.094 195.575 109.159L196.761 110.066L199.562 106.419C199.626 106.335 199.707 106.264 199.8 106.21C199.892 106.157 199.994 106.122 200.1 106.109C200.206 106.095 200.314 106.102 200.417 106.129C200.52 106.157 200.617 106.204 200.701 106.269C200.872 106.4 200.984 106.594 201.013 106.807C201.041 107.021 200.983 107.237 200.852 107.407L197.558 111.697C197.481 111.796 197.383 111.876 197.271 111.931C197.159 111.986 197.036 112.014 196.911 112.014Z" fill="white"/>
<path d="M599.157 273.7H5.05063C4.82751 273.7 4.61376 273.611 4.45623 273.453C4.29869 273.295 4.21022 273.081 4.21022 272.859C4.21022 272.636 4.29869 272.422 4.45623 272.265C4.61376 272.107 4.82751 272.018 5.05063 272.017H599.157C599.381 272.017 599.595 272.106 599.753 272.264C599.911 272.421 600 272.636 600 272.859C600 273.082 599.911 273.296 599.753 273.454C599.595 273.612 599.381 273.7 599.157 273.7Z" fill="#CCCCCC"/>
</g>
<defs>
<clipPath id="clip0_41_97">
<rect width="600" height="273" fill="white" transform="translate(0 0.700195)"/>
</clipPath>
</defs>
</svg>
